<?xml version="1.0" standalone="no"?>
<!DOCTYPE svg PUBLIC "-//W3C//DTD SVG 20010904//EN"
 "http://www.w3.org/TR/2001/REC-SVG-20010904/DTD/svg10.dtd">
<svg version="1.0" xmlns="http://www.w3.org/2000/svg"
 width="1844.000000pt" height="1287.000000pt" viewBox="0 0 1844.000000 1287.000000"
 preserveAspectRatio="xMidYMid meet">

<g transform="translate(0.000000,1287.000000) scale(0.100000,-0.100000)"
fill="#CA8EFF" stroke="none">
<path d="M10366 12850 c-69 -21 -178 -165 -281 -370 -31 -63 -61 -119 -65
-125 -4 -5 -33 -71 -65 -145 -176 -417 -395 -809 -762 -1361 -72 -109 -103
-164 -103 -185 0 -16 9 -85 20 -154 25 -160 25 -241 0 -321 -30 -96 -25 -93
-113 -64 -141 46 -383 50 -488 9 -49 -19 -156 -82 -207 -121 -92 -70 -162
-205 -162 -313 0 -53 -1 -54 -159 -181 -65 -53 -80 -74 -65 -89 7 -7 82 -19
169 -27 l157 -16 76 -76 c81 -80 170 -135 272 -166 37 -11 114 -19 235 -25
119 -5 195 -12 223 -23 87 -31 86 -30 359 -397 89 -120 254 -279 365 -353 164
-110 314 -166 496 -187 86 -10 125 -9 335 14 131 14 252 26 270 25 27 0 39
-10 82 -65 69 -90 245 -260 335 -323 182 -128 361 -175 540 -141 47 9 63 19
124 78 l71 68 105 19 c179 31 271 69 343 143 51 54 84 111 93 162 22 137 23
140 72 170 53 33 111 103 144 176 33 73 31 190 -5 260 -32 64 -95 126 -155
155 -38 19 -72 24 -211 31 -159 8 -210 13 -421 38 -143 18 -425 78 -510 109
-126 47 -365 171 -431 224 l-62 50 76 18 c148 35 247 103 296 201 17 33 31 69
31 78 0 13 18 21 78 33 170 37 370 224 443 415 13 36 23 90 26 147 5 88 6 91
43 130 134 141 176 332 104 472 -28 54 -30 62 -16 79 8 10 26 43 39 73 23 49
25 62 21 150 l-5 96 36 41 c119 136 133 278 35 364 -66 57 -151 38 -439 -100
-203 -97 -795 -349 -795 -338 0 2 7 25 15 52 29 94 14 179 -44 258 -25 34 -28
44 -20 71 14 49 11 160 -6 208 -9 24 -35 69 -58 99 -41 53 -42 57 -34 100 13
68 1 198 -23 263 -12 32 -37 78 -55 102 -25 32 -36 58 -40 97 -16 141 -62 251
-138 328 -64 65 -117 82 -191 60z m137 -138 c25 -27 56 -105 63 -155 8 -57 -9
-154 -51 -283 -37 -114 -76 -195 -145 -304 -62 -97 -67 -113 -40 -140 38 -38
67 -24 143 70 38 47 82 111 98 143 33 64 85 199 91 238 4 24 5 24 18 -6 25
-54 18 -224 -14 -340 -33 -122 -53 -166 -145 -320 -39 -66 -71 -125 -71 -131
0 -22 27 -34 60 -28 25 5 46 24 93 83 86 108 134 186 154 247 9 30 20 54 24
54 12 0 19 -42 19 -113 0 -115 -56 -248 -172 -411 -41 -56 -42 -59 -23 -72 10
-8 36 -14 57 -14 31 0 46 8 86 48 27 26 66 71 86 101 31 47 36 50 36 28 0 -44
-46 -174 -79 -226 -40 -62 -43 -64 -231 -145 -195 -84 -227 -104 -298 -176
-63 -63 -106 -125 -233 -330 -110 -177 -215 -308 -368 -457 -150 -147 -148
-147 -293 -78 -52 25 -109 48 -127 51 -17 4 -34 10 -36 15 -3 4 4 35 15 68 25
75 27 227 4 378 -18 126 -14 143 60 246 65 90 337 522 430 682 76 131 280 534
319 630 105 261 279 580 344 633 45 37 100 43 126 14z m1626 -1243 c-49 -93
-208 -250 -334 -331 -55 -35 -130 -84 -167 -107 -75 -48 -86 -65 -61 -94 15
-16 27 -18 74 -14 73 6 139 41 277 143 62 47 112 78 112 70 0 -47 -61 -138
-169 -250 -85 -87 -173 -154 -265 -200 -70 -36 -80 -59 -41 -96 33 -31 66 -30
145 5 74 33 128 73 216 163 34 34 67 62 73 62 17 0 24 -47 18 -118 -14 -149
-123 -278 -335 -399 -88 -50 -135 -67 -166 -59 -35 9 -50 -14 -29 -45 27 -37
55 -58 91 -65 28 -5 53 3 149 50 64 31 118 55 120 53 5 -6 -36 -114 -60 -156
-36 -62 -105 -148 -144 -179 -21 -16 -67 -44 -103 -62 -77 -39 -279 -100 -333
-100 -72 0 -54 -54 31 -92 l44 -20 -29 -30 c-15 -16 -61 -45 -100 -65 -86 -43
-175 -53 -293 -33 -123 21 -125 20 -123 -18 1 -40 34 -78 74 -87 16 -4 29 -13
29 -20 0 -21 -88 -73 -147 -86 -68 -16 -234 2 -302 32 -44 19 -141 26 -141 10
0 -9 90 -88 130 -114 14 -8 68 -25 120 -38 166 -38 290 -16 384 71 l46 42 62
-57 c34 -32 85 -73 113 -90 108 -69 305 -166 405 -199 120 -39 401 -106 448
-106 18 0 96 -9 175 -20 78 -11 207 -21 287 -23 126 -3 152 -6 199 -27 64 -28
85 -65 75 -132 -21 -135 -126 -232 -312 -288 -61 -19 -86 -21 -148 -15 -115
11 -163 -17 -113 -64 62 -57 203 -87 294 -62 22 6 43 7 48 2 15 -15 -21 -81
-68 -126 -64 -60 -152 -100 -274 -124 -173 -35 -249 -25 -405 54 -49 24 -93
42 -98 39 -4 -3 -8 -19 -8 -36 0 -52 83 -115 228 -174 23 -9 23 -10 5 -32 -30
-36 -114 -46 -225 -27 -50 8 -111 24 -135 35 -79 35 -227 144 -318 235 -93 92
-195 209 -195 224 0 5 61 39 135 76 138 68 169 94 163 137 -2 19 -8 22 -33 20
-73 -8 -277 -76 -410 -137 -99 -45 -257 -82 -393 -91 -228 -17 -478 65 -662
215 -146 119 -203 181 -325 351 -152 213 -207 281 -258 318 -90 63 -98 65
-302 73 -212 9 -270 20 -385 76 -148 72 -239 202 -248 353 -5 93 14 144 80
216 118 129 300 186 495 154 43 -7 192 -48 332 -91 139 -44 255 -79 257 -79
17 0 -6 -24 -61 -63 -36 -26 -69 -55 -72 -63 -9 -25 9 -64 39 -82 26 -16 29
-15 75 18 138 98 234 178 370 311 149 145 230 248 416 530 86 130 171 249 189
264 43 37 230 125 558 264 146 62 333 141 415 177 83 35 188 80 235 99 47 20
112 48 145 62 33 14 103 47 156 73 87 43 190 82 244 93 11 2 26 -2 34 -9 11
-10 8 -23 -20 -75z m-3969 -1906 c0 -16 9 -47 20 -71 l20 -43 -98 7 c-53 4
-98 8 -100 9 -5 4 140 125 150 125 4 0 8 -12 8 -27z"/>
<path d="M8504 9820 c-68 -28 -86 -124 -34 -184 70 -80 181 -41 184 64 2 77
-86 147 -150 120z m94 -77 c-4 -36 -50 -55 -74 -31 -14 14 -12 17 18 36 46 29
60 27 56 -5z"/>
<path d="M2436 7699 c-253 -27 -525 -113 -816 -260 -141 -71 -376 -208 -470
-274 -156 -109 -193 -136 -290 -214 -306 -246 -568 -519 -681 -713 -364 -621
-130 -1225 722 -1860 229 -170 602 -411 909 -586 407 -232 824 -483 915 -550
89 -66 255 -217 255 -233 0 -4 -46 -38 -102 -75 -623 -411 -1222 -949 -1410
-1266 -138 -232 -93 -412 118 -474 77 -22 276 -22 409 1 428 74 840 336 1097
700 90 127 164 286 205 443 36 138 37 338 3 462 -12 47 -29 97 -36 112 -8 15
-14 29 -14 32 0 12 332 186 354 186 2 0 6 -20 9 -45 7 -64 53 -135 106 -164
123 -68 257 -36 341 81 l30 41 0 -34 c1 -76 67 -163 147 -190 53 -18 176 -16
253 5 98 26 216 86 297 150 64 50 72 54 78 37 10 -31 71 -79 116 -91 74 -20
184 11 293 85 l66 44 0 -442 c0 -1126 85 -2345 168 -2420 33 -30 64 -35 116
-19 l49 16 -7 124 c-3 68 -17 250 -31 405 -56 653 -77 1074 -78 1574 0 211 2
385 4 388 3 2 20 -1 37 -7 48 -18 92 10 171 111 103 130 203 218 391 341 181
118 185 122 188 161 2 24 -3 43 -16 59 -33 41 -73 32 -196 -43 -59 -37 -110
-67 -111 -67 -2 0 8 33 21 74 67 211 57 346 -31 444 -129 143 -307 93 -420
-118 l-34 -65 -1 43 c0 24 7 123 16 219 15 171 15 177 -4 202 -25 34 -65 53
-96 45 -29 -7 -59 -62 -76 -139 -17 -78 -39 -303 -46 -487 l-7 -169 -63 -58
c-70 -64 -190 -131 -235 -131 l-29 0 0 78 c0 46 -6 88 -14 103 -8 16 -10 32
-5 40 29 46 -3 143 -69 212 -175 181 -516 90 -731 -195 -32 -42 -50 -58 -67
-58 -16 0 -24 6 -24 18 -1 28 -39 105 -68 135 -42 45 -94 67 -157 67 -87 0
-161 -40 -211 -114 -17 -24 -45 -40 -131 -74 -60 -24 -172 -76 -249 -117 -76
-41 -141 -75 -144 -75 -3 0 -16 16 -29 35 -69 101 -343 315 -561 437 -62 35
-570 334 -825 486 -354 210 -769 497 -935 645 -260 233 -408 413 -501 611
-133 285 -98 598 98 873 256 358 744 758 1253 1026 226 118 468 208 671 248
158 32 378 32 494 0 255 -69 422 -226 545 -516 75 -175 120 -397 140 -690 6
-88 13 -167 15 -175 8 -25 69 -60 104 -60 24 0 42 9 67 34 32 32 34 39 34 97
0 35 -5 114 -10 174 -45 500 -175 853 -396 1081 -91 93 -151 137 -259 189
-178 87 -388 118 -619 94z m3464 -4071 c51 -84 3 -288 -127 -541 -32 -62 -68
-112 -119 -165 -84 -89 -82 -92 -58 80 41 303 118 543 199 624 45 45 79 45
105 2z m-1129 -218 c10 -6 32 -38 49 -71 l30 -60 -83 -83 c-131 -131 -254
-195 -399 -204 -76 -4 -78 -4 -87 21 -17 44 22 149 74 197 15 14 33 37 41 52
21 40 115 107 187 134 66 24 155 31 188 14z m-897 -230 c22 -22 43 -40 47 -40
11 0 -1 -31 -17 -48 -20 -19 -72 -26 -89 -12 -28 23 -16 141 15 140 3 0 23
-18 44 -40z m-771 -401 c24 -70 33 -245 18 -332 -87 -501 -592 -966 -1154
-1063 -115 -20 -330 -16 -364 6 -51 33 -15 131 108 297 88 119 377 409 549
551 69 57 145 120 170 141 59 49 266 205 355 267 203 141 281 193 290 190 6
-1 18 -27 28 -57z"/>
<path d="M8733 7539 c-587 -56 -1117 -433 -1470 -1044 -99 -170 -222 -442
-289 -635 l-19 -55 -7 285 c-11 484 -32 612 -111 660 -62 38 -131 20 -177 -44
-14 -20 -31 -36 -38 -36 -7 0 -11 -4 -7 -10 3 -5 -10 -55 -30 -112 -40 -115
-39 -140 6 -184 30 -29 83 -38 120 -20 15 6 17 -10 23 -161 3 -92 8 -431 12
-753 5 -520 4 -605 -12 -765 -26 -256 -26 -937 -1 -1215 38 -407 94 -782 176
-1178 43 -203 115 -500 133 -545 15 -39 45 -57 95 -57 34 0 48 6 66 26 37 43
37 65 2 217 -116 493 -193 1201 -224 2072 -23 619 -24 892 -6 1015 64 436 208
912 375 1240 309 604 741 976 1265 1086 138 29 432 27 578 -4 600 -128 1070
-513 1302 -1067 401 -957 215 -2290 -468 -3355 -147 -229 -284 -398 -491 -605
-445 -444 -943 -707 -1526 -806 -158 -26 -483 -36 -655 -20 -266 25 -555 89
-800 175 -71 25 -139 46 -151 46 -53 0 -95 -69 -75 -123 14 -37 44 -54 189
-104 257 -90 540 -151 822 -178 694 -68 1395 134 1970 566 629 474 1106 1169
1378 2011 338 1042 263 2115 -195 2805 -253 381 -582 633 -1017 778 -268 89
-495 118 -743 94z"/>
<path d="M12013 6225 c-29 -20 -36 -45 -82 -290 -148 -783 -238 -1517 -271
-2210 -6 -126 -13 -285 -16 -353 l-6 -123 -60 -74 c-83 -104 -193 -202 -263
-236 -78 -38 -145 -40 -180 -5 -27 28 -45 83 -45 145 0 40 7 51 71 128 122
145 172 253 154 333 -16 75 -94 120 -170 99 -49 -13 -128 -92 -168 -166 -63
-118 -94 -346 -63 -476 53 -225 209 -317 417 -243 81 28 140 68 235 158 l72
68 7 -92 c15 -198 51 -315 116 -376 49 -47 96 -57 168 -37 48 14 70 29 127 83
77 74 166 193 239 320 l49 83 18 -48 c27 -70 80 -138 135 -170 40 -23 59 -28
113 -28 73 1 123 22 200 84 46 37 139 132 140 142 0 3 28 -8 62 -25 58 -29 69
-31 173 -31 83 0 129 6 188 23 84 24 182 70 234 108 36 28 36 28 58 -75 l13
-65 -67 -95 c-438 -620 -715 -1371 -756 -2046 -12 -197 25 -416 91 -547 34
-66 111 -141 169 -163 69 -27 160 -17 231 26 221 133 418 569 493 1094 68 472
87 1226 42 1630 -5 44 -6 84 -2 90 46 59 133 164 148 178 20 17 20 16 27 -126
8 -167 28 -316 50 -369 27 -63 77 -76 125 -30 26 24 34 45 62 172 47 213 101
371 151 443 19 26 21 27 38 12 18 -16 66 -110 111 -215 52 -121 117 -180 200
-180 56 0 149 51 220 122 l66 64 6 -395 c10 -601 47 -1102 97 -1298 35 -133
109 -195 178 -147 28 19 28 41 -2 124 -26 71 -57 296 -76 555 -30 394 -30
1391 0 1469 6 18 8 56 5 95 -8 88 47 677 82 870 l6 34 493 -7 494 -7 25 25
c17 17 25 36 25 59 0 29 -5 37 -32 50 -18 9 -70 20 -114 27 -89 12 -519 29
-732 30 -132 0 -132 0 -127 23 2 12 16 83 30 157 14 74 36 181 49 238 27 118
25 143 -16 177 -38 32 -81 32 -113 1 -40 -40 -84 -208 -137 -516 l-13 -75
-115 -2 c-163 -3 -428 -22 -471 -33 -48 -13 -79 -49 -86 -99 -10 -74 59 -120
224 -149 29 -5 64 -7 78 -4 27 5 75 55 75 78 0 11 18 14 83 14 45 0 106 3 136
7 l54 6 -6 -34 c-21 -117 -63 -580 -73 -799 -5 -97 -12 -155 -22 -175 -47 -94
-245 -315 -283 -315 -18 0 -43 46 -89 165 -69 177 -184 274 -290 245 -53 -14
-119 -79 -160 -157 l-30 -58 2 90 c1 50 -2 106 -6 125 -9 44 9 515 29 750 45
520 150 1166 286 1744 69 295 74 323 63 353 -11 34 -74 68 -108 59 -53 -13
-66 -35 -106 -191 -218 -849 -350 -1826 -350 -2594 l0 -154 -42 -46 c-23 -25
-70 -76 -104 -114 l-62 -67 -22 67 c-25 76 -48 125 -62 134 -6 4 -6 14 1 27
83 155 -268 263 -561 172 -178 -55 -318 -197 -318 -324 0 -59 -161 -227 -237
-248 -21 -6 -32 -1 -58 25 -48 48 -67 119 -70 268 -3 133 -15 171 -55 184 -16
5 -15 8 10 33 22 23 28 40 34 100 6 62 4 78 -11 105 -38 65 -130 58 -166 -13
-30 -59 -2 -191 42 -205 20 -6 20 -8 -11 -29 -27 -18 -35 -32 -44 -76 -22
-110 -276 -525 -377 -617 -34 -30 -41 -33 -54 -21 -24 25 -44 165 -50 366 -4
145 -3 203 7 233 10 29 10 45 2 63 -8 17 -8 88 -1 248 33 781 129 1559 289
2340 30 147 48 258 44 273 -14 56 -101 85 -151 50z m1515 -2930 c29 -9 52 -19
52 -24 0 -5 -14 -26 -31 -47 -68 -87 -221 -148 -371 -149 -59 0 -81 4 -94 16
-15 16 -13 22 25 87 38 65 45 72 97 92 108 40 237 50 322 25z m188 -1240 c-5
-372 -14 -520 -47 -785 -66 -541 -208 -914 -401 -1056 -42 -32 -97 -32 -125
-1 -66 71 -102 207 -110 408 -22 555 250 1384 648 1970 l24 36 8 -111 c4 -61
6 -268 3 -461z"/>
<path d="M17830 5515 c-317 -63 -653 -362 -852 -759 -149 -296 -217 -586 -225
-962 -7 -293 10 -394 67 -394 40 0 53 35 58 150 4 108 4 109 -23 134 l-27 26
6 117 c20 344 84 608 211 868 93 190 170 301 310 441 180 181 331 270 514 301
148 26 263 -9 354 -106 51 -55 80 -111 104 -206 21 -85 29 -518 14 -723 -36
-464 -138 -962 -297 -1444 -45 -135 -46 -137 -77 -142 -136 -21 -176 -29 -249
-51 -359 -104 -584 -343 -659 -700 -25 -117 -35 -356 -20 -455 22 -144 83
-218 170 -206 197 27 512 500 772 1161 33 82 64 161 70 174 l10 24 183 -7
c159 -5 185 -4 190 9 3 9 -5 22 -21 32 -22 15 -55 19 -181 21 -111 3 -152 7
-149 15 24 64 99 307 138 451 85 310 147 631 186 953 14 115 17 225 17 493 0
325 -1 350 -22 425 -31 112 -68 181 -132 246 -110 110 -261 150 -440 114z
m140 -2771 c0 -23 -149 -374 -225 -532 -224 -461 -436 -740 -554 -730 -28 2
-38 10 -53 40 -50 97 -47 419 7 603 95 325 326 527 695 605 89 20 130 24 130
14z"/>
<path d="M15683 1405 c-37 -16 -73 -68 -73 -105 0 -32 32 -85 61 -101 13 -6
41 -12 63 -12 33 0 45 6 73 36 58 64 38 149 -43 183 -40 17 -41 17 -81 -1z"/>
</g>
</svg>
